<?xml version="1.0" encoding="UTF-8" standalone="no"?>
<svg
   xmlns:dc="http://purl.org/dc/elements/1.1/"
   xmlns:cc="http://creativecommons.org/ns#"
   xmlns:rdf="http://www.w3.org/1999/02/22-rdf-syntax-ns#"
   xmlns:svg="http://www.w3.org/2000/svg"
   xmlns="http://www.w3.org/2000/svg"
   xmlns:sodipodi="http://sodipodi.sourceforge.net/DTD/sodipodi-0.dtd"
   xmlns:inkscape="http://www.inkscape.org/namespaces/inkscape"
   inkscape:export-ydpi="1966.08"
   inkscape:export-xdpi="1966.08"
   inkscape:export-filename="C:\Users\Максим\YandexDisk\UnityProjects\Netology\3_4\Assets\Images\UI\UI Pictograms.png"
   sodipodi:docname="UI Pictograms.svg"
   inkscape:version="1.0 (4035a4fb49, 2020-05-01)"
   width="400.0px"
   height="400.0px"
   viewBox="0 0 400.0 400.0"
   version="1.1"
   id="SVGRoot">
  <defs
     id="defs833" />
  <sodipodi:namedview
     inkscape:pagecheckerboard="true"
     inkscape:guide-bbox="true"
     showguides="true"
     inkscape:window-maximized="0"
     inkscape:window-y="0"
     inkscape:window-x="160"
     inkscape:window-height="1030"
     inkscape:window-width="1424"
     showgrid="true"
     inkscape:document-rotation="0"
     inkscape:current-layer="layer1"
     inkscape:document-units="px"
     inkscape:cy="147.48937"
     inkscape:cx="97.050745"
     inkscape:zoom="1.979899"
     inkscape:pageshadow="2"
     inkscape:pageopacity="0.0"
     borderopacity="1.0"
     bordercolor="#666666"
     pagecolor="#ffffff"
     id="base">
    <inkscape:grid
       type="xygrid"
       id="grid1403" />
    <sodipodi:guide
       id="guide1410"
       orientation="1,0"
       position="100,400" />
    <sodipodi:guide
       id="guide1412"
       orientation="0.70710678,-0.70710678"
       position="400,400" />
    <sodipodi:guide
       id="guide1414"
       orientation="-0.70710678,-0.70710678"
       position="0,400" />
    <sodipodi:guide
       id="guide1416"
       orientation="1,0"
       position="200,400" />
    <sodipodi:guide
       id="guide1418"
       orientation="1,0"
       position="300,400" />
    <sodipodi:guide
       id="guide1420"
       orientation="0,-1"
       position="0,300" />
    <sodipodi:guide
       id="guide1422"
       orientation="0,-1"
       position="0,200" />
    <sodipodi:guide
       id="guide1424"
       orientation="0,-1"
       position="0,100" />
    <sodipodi:guide
       id="guide1443"
       orientation="0.70710678,-0.70710678"
       position="250,350" />
  </sodipodi:namedview>
  <metadata
     id="metadata836">
    <rdf:RDF>
      <cc:Work
         rdf:about="">
        <dc:format>image/svg+xml</dc:format>
        <dc:type
           rdf:resource="http://purl.org/dc/dcmitype/StillImage" />
        <dc:title></dc:title>
      </cc:Work>
    </rdf:RDF>
  </metadata>
  <g
     id="layer1"
     inkscape:groupmode="layer"
     inkscape:label="Layer 1">
    <path
       d="M 5 0 L 0 5 L 0 45 L 5 50 L 0 55 L 0 95 L 5 100 L 45 100 L 50 95 L 55 100 L 95 100 L 100 95 L 100 55 L 95 50 L 100 45 L 100 5 L 95 0 L 55 0 L 50 5 L 45 0 L 5 0 z M 15 10 L 85 10 L 90 15 L 90 85 L 85 90 L 15 90 L 10 85 L 10 15 L 15 10 z "
       style="fill:#ffffff;stroke:none;stroke-width:1.0015748;stroke-linecap:butt;stroke-linejoin:miter;stroke-opacity:1;fill-opacity:1;stroke-miterlimit:4;stroke-dasharray:none"
       id="path1428" />
    <path
       id="path1441"
       d="M 110,50 130,5 h 40 l 20,45 -20,45 h -40 z"
       style="fill:#4642b7;stroke:#7773fa;stroke-width:2;stroke-linecap:butt;stroke-linejoin:miter;stroke-opacity:1;fill-opacity:1;stroke-miterlimit:4;stroke-dasharray:none" />
    <path
       id="path1445"
       d="M 75,120 25,180 35,150 H 65 Z"
       style="fill:#f5e23c;fill-opacity:1;stroke:none;stroke-width:3;stroke-linecap:butt;stroke-linejoin:miter;stroke-miterlimit:4;stroke-dasharray:none;stroke-opacity:1" />
    <path
       d="m 100,100 v 80 l 20,10 h 10 l 20,10 20,-10 h 10 l 20,-10 v -80 l -15,10 h -70 z m 20,15 h 60 l 5,5 v 55 l -5,5 h -60 l -5,-5 v -55 z"
       style="fill:#ffffff;fill-opacity:1;stroke:none;stroke-width:1px;stroke-linecap:butt;stroke-linejoin:miter;stroke-opacity:1"
       id="path1449" />
  </g>
</svg>
